<svg xmlns="http://www.w3.org/2000/svg" xmlns:xlink="http://www.w3.org/1999/xlink" viewBox="0 0 288 288"><defs><style>.cls-1{fill:url(#linear-gradient);}.cls-2{isolation:isolate;}.cls-3{clip-path:url(#clip-path);}.cls-20,.cls-4{mix-blend-mode:screen;}.cls-10,.cls-11,.cls-12,.cls-13,.cls-14,.cls-15,.cls-16,.cls-17,.cls-18,.cls-19,.cls-20,.cls-21,.cls-22,.cls-24,.cls-25,.cls-26,.cls-27,.cls-28,.cls-29,.cls-30,.cls-31,.cls-32,.cls-33,.cls-34,.cls-35,.cls-36,.cls-37,.cls-38,.cls-39,.cls-40,.cls-41,.cls-43,.cls-44,.cls-45,.cls-46,.cls-47,.cls-48,.cls-49,.cls-5,.cls-50,.cls-6,.cls-7,.cls-8,.cls-9{fill-rule:evenodd;}.cls-5{fill:url(#linear-gradient-3);}.cls-6{fill:url(#linear-gradient-4);}.cls-29,.cls-41,.cls-42,.cls-44,.cls-7{mix-blend-mode:hard-light;}.cls-7{fill:url(#linear-gradient-5);}.cls-8{fill:url(#linear-gradient-6);}.cls-9{fill:url(#linear-gradient-7);}.cls-10{fill:url(#linear-gradient-8);}.cls-11{fill:#002b5f;}.cls-12{mix-blend-mode:color-burn;fill:url(#linear-gradient-9);}.cls-13{fill:url(#linear-gradient-10);}.cls-14{fill:url(#linear-gradient-11);}.cls-15{fill:url(#linear-gradient-12);}.cls-16{fill:url(#linear-gradient-13);}.cls-17{fill:url(#linear-gradient-14);}.cls-18{fill:url(#linear-gradient-15);}.cls-19{fill:url(#linear-gradient-16);}.cls-20{fill:url(#linear-gradient-17);}.cls-21{fill:url(#linear-gradient-18);}.cls-22{fill:url(#linear-gradient-19);}.cls-23{mix-blend-mode:lighten;}.cls-24{fill:url(#linear-gradient-20);}.cls-25{fill:url(#linear-gradient-21);}.cls-26{fill:url(#linear-gradient-22);}.cls-27{fill:url(#linear-gradient-23);}.cls-28{fill:url(#linear-gradient-24);}.cls-29{fill:url(#linear-gradient-25);}.cls-30{fill:url(#linear-gradient-26);}.cls-31{fill:url(#linear-gradient-27);}.cls-32{fill:url(#linear-gradient-28);}.cls-33{fill:url(#linear-gradient-29);}.cls-34{fill:url(#linear-gradient-30);}.cls-35{fill:url(#linear-gradient-31);}.cls-36{fill:url(#linear-gradient-32);}.cls-37{fill:url(#linear-gradient-33);}.cls-38{fill:url(#linear-gradient-34);}.cls-39{fill:url(#linear-gradient-35);}.cls-40{fill:url(#linear-gradient-36);}.cls-41{fill:url(#linear-gradient-37);}.cls-43{fill:url(#linear-gradient-38);}.cls-44{fill:url(#linear-gradient-39);}.cls-45{fill:url(#linear-gradient-40);}.cls-46{fill:url(#linear-gradient-41);}.cls-47{fill:url(#linear-gradient-42);}.cls-48{fill:url(#linear-gradient-43);}.cls-49{opacity:0.6;mix-blend-mode:multiply;fill:url(#linear-gradient-44);}.cls-50{opacity:0.5;mix-blend-mode:color-dodge;fill:url(#linear-gradient-45);}</style><linearGradient id="linear-gradient" x1="144" y1="58.7" x2="144" y2="368.82" gradientUnits="userSpaceOnUse"><stop offset="0.18" stop-color="#002b5f"/><stop offset="1" stop-color="#001938"/></linearGradient><clipPath id="clip-path"><rect class="cls-1" width="288" height="288"/></clipPath><linearGradient id="linear-gradient-3" x1="-1141.05" y1="41.4" x2="-1183.76" y2="84.11" gradientTransform="translate(-97.97 -884.7) rotate(-107.27)" gradientUnits="userSpaceOnUse"><stop offset="0.16" stop-color="#00c8af"/><stop offset="1" stop-color="#0032c3"/></linearGradient><linearGradient id="linear-gradient-4" x1="-1033.66" y1="-188.22" x2="-1271.91" y2="50.03" xlink:href="#linear-gradient-3"/><linearGradient id="linear-gradient-5" x1="-893.01" y1="-104.87" x2="-1143.02" y2="145.13" xlink:href="#linear-gradient-3"/><linearGradient id="linear-gradient-6" x1="-1039.56" y1="-126.33" x2="-1065.21" y2="-100.68" xlink:href="#linear-gradient-3"/><linearGradient id="linear-gradient-7" x1="-1128.8" y1="-13.61" x2="-1142.45" y2="0.03" gradientTransform="translate(-97.97 -884.7) rotate(-107.27)" gradientUnits="userSpaceOnUse"><stop offset="0" stop-color="#ffe100"/><stop offset="1" stop-color="#ff8400"/></linearGradient><linearGradient id="linear-gradient-8" x1="-1109.82" y1="-77.48" x2="-1122.24" y2="-65.06" xlink:href="#linear-gradient-7"/><linearGradient id="linear-gradient-9" x1="-1372.04" y1="-551.37" x2="-1300.32" y2="-212.27" gradientTransform="matrix(-0.89, -0.47, 0.47, -0.89, -871.39, -767.71)" gradientUnits="userSpaceOnUse"><stop offset="0" stop-color="#ededed"/><stop offset="1" stop-color="#8e939c"/></linearGradient><linearGradient id="linear-gradient-10" x1="-869.34" y1="-85.58" x2="-1238.37" y2="283.45" xlink:href="#linear-gradient-7"/><linearGradient id="linear-gradient-11" x1="-1034.33" y1="-170.7" x2="-1159.59" y2="-45.44" gradientTransform="translate(-97.97 -884.7) rotate(-107.27)" gradientUnits="userSpaceOnUse"><stop offset="0" stop-color="#ff9e15"/><stop offset="0.7" stop-color="#ef184b"/></linearGradient><linearGradient id="linear-gradient-12" x1="-1046.37" y1="-196.31" x2="-1201.06" y2="-41.63" xlink:href="#linear-gradient-11"/><linearGradient id="linear-gradient-13" x1="-1178.91" y1="-94.87" x2="-1194.93" y2="-78.85" xlink:href="#linear-gradient-11"/><linearGradient id="linear-gradient-14" x1="-1109.5" y1="-190.18" x2="-1150.99" y2="-148.69" xlink:href="#linear-gradient-11"/><linearGradient id="linear-gradient-15" x1="-1099" y1="-56.89" x2="-1244.8" y2="88.9" gradientTransform="translate(-97.97 -884.7) rotate(-107.27)" xlink:href="#linear-gradient-9"/><linearGradient id="linear-gradient-16" x1="-1104.78" y1="-118.66" x2="-1126.86" y2="-96.58" gradientTransform="translate(-97.97 -884.7) rotate(-107.27)" xlink:href="#linear-gradient-9"/><linearGradient id="linear-gradient-17" x1="-1043.36" y1="-149.71" x2="-1069.14" y2="-123.93" gradientTransform="translate(-97.97 -884.7) rotate(-107.27)" xlink:href="#linear-gradient-9"/><linearGradient id="linear-gradient-18" x1="-1159.56" y1="-147.59" x2="-1177.07" y2="-130.08" gradientTransform="translate(-97.97 -884.7) rotate(-107.27)" xlink:href="#linear-gradient-9"/><linearGradient id="linear-gradient-19" x1="-1056.28" y1="-155.08" x2="-1242.87" y2="31.51" gradientTransform="translate(-97.97 -884.7) rotate(-107.27)" xlink:href="#linear-gradient-9"/><linearGradient id="linear-gradient-20" x1="416.28" y1="-257.43" x2="288.82" y2="-129.97" gradientTransform="translate(-204.62 177.08) rotate(19.29)" gradientUnits="userSpaceOnUse"><stop offset="0" stop-color="#ffb500"/><stop offset="1" stop-color="#ff3f09"/></linearGradient><linearGradient id="linear-gradient-21" x1="311.38" y1="-73.16" x2="270.83" y2="-32.62" xlink:href="#linear-gradient-20"/><linearGradient id="linear-gradient-22" x1="334.04" y1="-167.63" x2="472.67" y2="-167.63" gradientTransform="translate(-204.62 177.08) rotate(19.29)" gradientUnits="userSpaceOnUse"><stop offset="0" stop-color="#ff45ca"/><stop offset="1" stop-color="#f8eb00"/></linearGradient><linearGradient id="linear-gradient-23" x1="279.2" y1="-136.15" x2="340.55" y2="-136.15" xlink:href="#linear-gradient-22"/><linearGradient id="linear-gradient-24" x1="408.16" y1="-49.07" x2="414.32" y2="-49.07" xlink:href="#linear-gradient-22"/><linearGradient id="linear-gradient-25" x1="199.62" y1="47.12" x2="422.88" y2="-197.62" gradientTransform="translate(-204.62 177.08) rotate(19.29)" gradientUnits="userSpaceOnUse"><stop offset="0.25" stop-color="gray"/><stop offset="1" stop-color="#001f3d"/></linearGradient><linearGradient id="linear-gradient-26" x1="396.1" y1="-118.26" x2="586.37" y2="-118.26" xlink:href="#linear-gradient-22"/><linearGradient id="linear-gradient-27" x1="270.89" y1="-102.01" x2="297.25" y2="-102.01" gradientTransform="translate(-204.62 177.08) rotate(19.29)" gradientUnits="userSpaceOnUse"><stop offset="0" stop-color="#1e43ff"/><stop offset="1" stop-color="#ff2e34"/></linearGradient><linearGradient id="linear-gradient-28" x1="347.43" y1="-49.42" x2="354.15" y2="-49.42" xlink:href="#linear-gradient-27"/><linearGradient id="linear-gradient-29" x1="664.05" y1="-357.54" x2="328.96" y2="-22.46" gradientTransform="translate(-204.62 177.08) rotate(19.29)" gradientUnits="userSpaceOnUse"><stop offset="0" stop-color="#2efffb"/><stop offset="0.21" stop-color="#22dff6"/><stop offset="0.57" stop-color="#10acef"/><stop offset="0.85" stop-color="#048dea"/><stop offset="1" stop-color="#0081e8"/></linearGradient><linearGradient id="linear-gradient-30" x1="460.91" y1="-72.42" x2="448.88" y2="-60.39" xlink:href="#linear-gradient-29"/><linearGradient id="linear-gradient-31" x1="246.52" y1="-108.69" x2="239.75" y2="-101.92" xlink:href="#linear-gradient-29"/><linearGradient id="linear-gradient-32" x1="503.85" y1="-322.74" x2="393.71" y2="-212.61" xlink:href="#linear-gradient-29"/><linearGradient id="linear-gradient-33" x1="291.11" y1="-164.43" x2="255.29" y2="-128.61" xlink:href="#linear-gradient-29"/><linearGradient id="linear-gradient-34" x1="355" y1="-104.74" x2="329.55" y2="-79.3" xlink:href="#linear-gradient-29"/><linearGradient id="linear-gradient-35" x1="396.25" y1="-86.4" x2="387.52" y2="-77.67" xlink:href="#linear-gradient-29"/><linearGradient id="linear-gradient-36" x1="302.63" y1="-149.32" x2="401.36" y2="-149.32" xlink:href="#linear-gradient-27"/><linearGradient id="linear-gradient-37" x1="540.03" y1="-345.31" x2="221.39" y2="-35.06" xlink:href="#linear-gradient-25"/><linearGradient id="linear-gradient-38" x1="460.35" y1="-163.04" x2="627.57" y2="-163.04" xlink:href="#linear-gradient-25"/><linearGradient id="linear-gradient-39" x1="616.74" y1="-317.72" x2="355.75" y2="34.45" xlink:href="#linear-gradient-25"/><linearGradient id="linear-gradient-40" x1="359.48" y1="-249.15" x2="419.69" y2="-249.15" xlink:href="#linear-gradient-22"/><linearGradient id="linear-gradient-41" x1="495.98" y1="-254.87" x2="405.75" y2="-164.64" xlink:href="#linear-gradient-20"/><linearGradient id="linear-gradient-42" x1="480.26" y1="-125.21" x2="400.27" y2="-45.21" xlink:href="#linear-gradient-20"/><linearGradient id="linear-gradient-43" x1="497.23" y1="-179.98" x2="398.22" y2="-80.98" xlink:href="#linear-gradient-20"/><linearGradient id="linear-gradient-44" x1="359.68" y1="-98.52" x2="479.37" y2="-183.89" xlink:href="#linear-gradient-25"/><linearGradient id="linear-gradient-45" x1="410.3" y1="-183.04" x2="651.65" y2="-219.2" gradientTransform="translate(-204.62 177.08) rotate(19.29)" gradientUnits="userSpaceOnUse"><stop offset="0.25" stop-color="#d1d1d1"/><stop offset="1" stop-color="#ff4286"/></linearGradient></defs><title>hero-bg.jpg</title><g class="cls-2"><g id="Layer_1" data-name="Layer 1"><rect class="cls-1" width="288" height="288"/><g class="cls-3"><g class="cls-4"><path class="cls-5" d="M332.75,182.44c1.65-1.25,3.28-1.38,3.64-.29h0c.35,1.1-.73,3-2.41,4.23a463.08,463.08,0,0,1-63.85,39.75c-1.4.71-2.67.5-2.83-.46h0c-.16-1,.85-2.31,2.23-3A462.63,462.63,0,0,0,332.75,182.44Z"/><path class="cls-6" d="M255.06,221.07c10.82-5.4,20.76-4.06,22.27,3.81h0c1.49,7.71-6.67,18.45-18.2,23.16a309.43,309.43,0,0,1-52.91,16.46,228,228,0,0,1-43.31,5c-24.43.36-46.16-4-64.36-11.14C82,251.84,68.64,242.69,56.62,235.42c-10.24-6.2-20-10.32-28.85-10.78-2.4-.12-4.44-3.78-4.48-8.46h0c0-4.62,2.09-8.59,4.71-8.56,9.62.12,20.18,4,30.66,10.6,12.22,7.72,25.53,17.44,42,23.3,17.92,6.36,39.24,9.27,62.8,7.29A214.15,214.15,0,0,0,205,240.92,297.39,297.39,0,0,0,255.06,221.07Z"/><path class="cls-7" d="M325.35-32.68c11-22.19,27.8-30.32,38-15.86h0c10.16,14.45,6.71,47-8.14,70-23.69,36.61-48.31,67.22-72.74,92.05-21.72,22-43.22,39.46-63.83,52.45-18.31,11.55-36,19.67-52.57,24.54a129.7,129.7,0,0,1-42,5.65c-23.29-1-42.56-12.84-62.08-20.84-17.62-7.2-35.72-7.53-49.43-1.17-3.86,1.79-7-.54-7.63-5.71h0c-.57-5,1.85-11.32,6-13.56,14.56-7.9,33.45-9.21,52.5-5.11,20.31,4.39,41.13,12,63.73,9.82a124.88,124.88,0,0,0,39.47-11.11c15.22-6.95,31.12-17.14,47.2-30.6,18-15.1,36.36-34.32,54.34-57.7C288.11,34.11,307.54,3.13,325.35-32.68Z"/><path class="cls-8" d="M115,151.94c.61,0,1.11.77,1.11,1.75h0c0,1-.51,1.76-1.12,1.76a123.26,123.26,0,0,1-24.18-2.74,1.73,1.73,0,0,1-1-1.74h0c0-.84.43-1.44,1-1.33A125.43,125.43,0,0,0,115,151.94Z"/><path class="cls-9" d="M240.29,195.28c.46-.26.87-.14.9.27h0a1.47,1.47,0,0,1-.79,1.23q-9.53,5.39-18.8,9.75c-.43.21-.8.05-.82-.34h0a1.4,1.4,0,0,1,.77-1.09Q230.77,200.69,240.29,195.28Z"/><path class="cls-10" d="M170.92,199c.35-.11.63.13.6.53h0a1,1,0,0,1-.69.9c-4.86,1.4-9.64,2.54-14.31,3.43-.33.06-.57-.19-.54-.57h0a.93.93,0,0,1,.67-.8Q163.64,201.08,170.92,199Z"/><path class="cls-11" d="M241.24,134.43c13.26-11.12,26.43-9.23,29.14,6h0c2.62,14.79-8,36.06-23.25,45.59-23.79,14.81-46.54,24.86-67.45,30.6-18.6,5.1-36.08,6.88-51.73,5.78a111.88,111.88,0,0,1-39.11-9.8c-11-5.1-20.19-13-30.15-18.06C41.43,185.79,23,185.36,9.9,192.31c-12.91,6.85-22.29,20.43-27.8,36-1.69,4.75-3.78,4.74-5.1-.11h0c-1.27-4.67-1.15-12.63.73-17.71,6.21-16.88,16.52-31.86,30.82-40.18,14.6-8.47,34.83-9.23,54.62-2.06,21.74,7.89,44,19.34,70.07,17.55,14.81-1,31-5.2,47.95-12.69C200.28,164.61,220.55,151.79,241.24,134.43Z"/><path class="cls-12" d="M250.91,149.63c17-13.44,33.74-12.27,37.21,5.28h0c3.32,16.88-10.38,41.88-30.25,53a308.88,308.88,0,0,1-45.52,20.91,225.78,225.78,0,0,1-38.66,10.27c-22.22,3.72-42.65,3.06-60.28-1A125,125,0,0,1,70.83,219.2c-10.94-7.5-20.89-13.87-30.89-16.4A43.12,43.12,0,0,0-4.48,218.43c-10.74,14-15.86,34.2-17.14,56.32-.39,6.87-2.05,8-4.1,2.46h0c-1.94-5.23-3.38-15.27-2.76-22.44,2-23.45,8.16-45.22,20.31-61C3.3,178.93,23,169.67,43.61,173.09c24.59,4.11,47.64,24.77,77.06,27.27,16.68,1.4,35.7-1.11,55.82-8.08a216.57,216.57,0,0,0,34.73-15.82A303.05,303.05,0,0,0,250.91,149.63Z"/><path class="cls-13" d="M442.23-60.19c22.62-43.7,55.38-70.15,77.16-54.25h0c22,16,15.62,72.82-17.76,120a929.16,929.16,0,0,1-80.42,98.87,702.55,702.55,0,0,1-72.37,67.24,508.33,508.33,0,0,1-62.51,43.07,361.94,361.94,0,0,1-52.92,25.37A262.85,262.85,0,0,1,189,252.72,198.33,198.33,0,0,1,152,256.27c-21.29-.06-40.45-4.1-56.68-10.79-15-6.19-27.15-15.15-38.39-22.07-9.68-6-19.25-9.67-28.09-10.11-15.66-.78-30,10.13-37.37,25-2.32,4.66-5.07,3.09-6.67-3.78h0c-1.53-6.61-1-16.35,1.66-21.52,8.87-16.88,25.28-29.89,44.11-30.3,10.49-.21,22.09,3,33.41,9.36,12.35,6.9,24.27,15.57,38.76,19.83,15.54,4.55,33.74,5.76,53.4,2.76a181.62,181.62,0,0,0,34-8.85,251.52,251.52,0,0,0,39.76-18.7,358,358,0,0,0,45.9-31.77,499.64,499.64,0,0,0,51.9-48.89,664.19,664.19,0,0,0,56.6-70.52A838.58,838.58,0,0,0,442.23-60.19Z"/><path class="cls-14" d="M165.57,191.77c3.88-1.11,6.89,1.56,6.63,6.11h0c-.26,4.48-3.78,9-7.78,9.87-25.19,5.67-48.4,4.35-67.17-2.23-17.44-6.13-31.71-18.58-47.43-23.43-2.11-.65-3.52-3.21-3.21-5.88h0c.31-2.67,2.29-4.47,4.49-3.88,16.23,4.36,31.27,15.49,48.76,20.76C118.47,198.68,141.22,198.75,165.57,191.77Z"/><path class="cls-15" d="M170,224.44c5.33-1.06,9.48,1.92,9.22,6.92h0c-.26,4.88-5,9.65-10.48,10.39a157.39,157.39,0,0,1-49.18-.74,124.71,124.71,0,0,1-37.22-13.08c-10.42-5.69-19-12.86-27.6-17.61a58.53,58.53,0,0,0-23.11-7.46c-2-.17-3.56-2.84-3.37-6.15h0c.18-3.29,2.1-6,4.3-5.88a62.15,62.15,0,0,1,24.9,7.22c9.21,4.74,17.81,12.29,28.2,17.53a112.89,112.89,0,0,0,36.52,11A148.92,148.92,0,0,0,170,224.44Z"/><path class="cls-16" d="M177.68,272.69c.41,0,.76.18.78.46h0c0,.29-.31.55-.72.57-5.65.42-11.16.6-16.51.58-.38,0-.7-.23-.71-.5h0c0-.27.29-.49.67-.49Q169.21,273.33,177.68,272.69Z"/><path class="cls-17" d="M86.73,250a2.8,2.8,0,0,1,1.53,2.5h0c-.07.93-.88,1.32-1.81.86C74.21,247.29,64,240.11,54.51,234.54a2.82,2.82,0,0,1-1-2.46h0c.07-1,.65-1.49,1.29-1.11C64.28,236.6,74.46,243.93,86.73,250Z"/><path class="cls-11" d="M233.54,213.87c12.61-6,23.93-3.59,25.3,6.65h0c1.32,9.93-8.68,22.92-22.31,27.78A257.83,257.83,0,0,1,176,262.38a182.61,182.61,0,0,1-47-1.15c-25.72-4.17-46.8-15-63.91-26.09-14.27-9.23-27.18-15.91-38.86-15.88C15.75,219.3,6,224.58-.64,232.6c-2,2.43-4.18.35-5.08-4.87h0c-.88-5.1,0-11.58,2.26-14.25C4,204.55,14.89,198.41,26.72,197.8c13.06-.66,27.74,5.56,42.27,15.92a124.56,124.56,0,0,0,63,22.81,164.8,164.8,0,0,0,44.91-3.14C194.5,229.83,213.54,223.42,233.54,213.87Z"/><path class="cls-18" d="M334.43,180.94c6-4.52,11.9-5.19,13.29-1.29h0c1.38,3.87-2.55,10.75-8.76,15.14a482.23,482.23,0,0,1-59,35.82,352.49,352.49,0,0,1-50,20.94c-28.4,9.28-54.54,13.09-77.43,12.57-3.1-.08-5.5-2.13-5.36-4.5h0c.13-2.39,2.72-4.28,5.77-4.3,22.58-.15,48.25-4.75,76-14.85a349.31,349.31,0,0,0,48.58-22.32A479.42,479.42,0,0,0,334.43,180.94Z"/><path class="cls-19" d="M138.83,210.8a.87.87,0,0,1,.85,1.1h0a1.36,1.36,0,0,1-1.18,1.18A119.22,119.22,0,0,1,116.7,212a.94.94,0,0,1-.69-1.17h0a1.06,1.06,0,0,1,1.09-.92A118.92,118.92,0,0,0,138.83,210.8Z"/><path class="cls-20" d="M92.94,165.11a1.66,1.66,0,0,1,.89,1.75h0c0,.82-.54,1.36-1.08,1.21-7.51-2.16-14.79-4.93-22.1-7.36a1.63,1.63,0,0,1-.9-1.56h0c0-.7.46-1.13,1-1C78.08,160.47,85.4,163.09,92.94,165.11Z"/><path class="cls-21" d="M121.69,272.86a1,1,0,0,1,.74.75h0c0,.3-.28.47-.67.37-5.28-1.4-10.35-3-15.2-4.76a1,1,0,0,1-.66-.77h0c0-.3.26-.44.6-.32C111.35,269.88,116.41,271.47,121.69,272.86Z"/><path class="cls-22" d="M250.75,213.27c7.2-3.66,13.66-2.37,14.42,3.26h0c.74,5.54-4.75,13-12.29,16.33-24.14,10.61-46.88,17.28-67.67,20.57a186.05,186.05,0,0,1-52,1.25c-28.14-3.54-51.1-15.49-69.53-27.74-2.4-1.6-3.94-5.52-3.34-8.82h0c.61-3.3,3.16-4.66,5.58-3,18.31,12.8,41.42,23.69,69,25.84a176.64,176.64,0,0,0,50.66-3.86C205.76,232.8,227.67,225,250.75,213.27Z"/></g><g class="cls-23"><polygon class="cls-24" points="237.95 75.91 166.9 110.12 156.19 140.73 268.56 86.63 237.95 75.91"/><polygon class="cls-25" points="102.19 212.25 79.6 223.13 76.19 232.87 111.93 215.66 102.19 212.25"/><polygon class="cls-26" points="293.4 100.34 271.67 92.73 159.99 146.5 143.15 194.61 293.4 122.27 293.4 100.34"/><polygon class="cls-27" points="150.63 124.65 101.21 148.45 93.75 169.74 171.92 132.1 150.63 124.65"/><polygon class="cls-28" points="201.54 263.97 196.58 266.36 195.84 268.49 203.68 264.72 201.54 263.97"/><polygon class="cls-29" points="293.4 122.85 255.4 109.55 109.17 179.95 87.12 242.96 293.4 143.63 293.4 122.85"/><polygon class="cls-30" points="293.4 153.89 208.93 194.56 185.82 260.6 293.4 208.8 293.4 153.89"/><polygon class="cls-31" points="104.85 163.34 83.62 173.56 80.42 182.71 114 166.54 104.85 163.34"/><polygon class="cls-32" points="144.76 243.42 139.34 246.03 138.53 248.37 147.1 244.24 144.76 243.42"/><polygon class="cls-33" points="293.4 144.37 260.47 160.22 232.31 240.69 293.4 211.27 293.4 144.37"/><polygon class="cls-34" points="251.02 261.37 244.31 264.6 243.3 267.49 253.91 262.38 251.02 261.37"/><polygon class="cls-35" points="58.26 159.37 62.15 157.49 62.74 155.81 56.58 158.78 58.26 159.37"/><polygon class="cls-36" points="293.4 68.04 257.4 85.38 284.7 94.94 293.4 90.75 293.4 68.04"/><polygon class="cls-37" points="94.26 136.27 114.88 126.35 117.98 117.47 85.38 133.16 94.26 136.27"/><polygon class="cls-38" points="143.6 208.43 158.24 201.38 160.45 195.07 137.29 206.22 143.6 208.43"/><polygon class="cls-39" points="190.58 230.85 195.6 228.44 196.36 226.27 188.41 230.1 190.58 230.85"/><polygon class="cls-40" points="148.32 194.68 227.86 156.38 239.85 122.12 114.05 182.69 148.32 194.68"/><polygon class="cls-41" points="104.58 205.01 259.22 130.56 282.54 63.94 37.96 181.7 104.58 205.01"/><g class="cls-42"><polygon class="cls-43" points="293.4 174.01 282.32 179.35 293.4 183.23 293.4 174.01"/></g><polygon class="cls-44" points="293.4 193.7 236.32 221.19 287.26 239.01 293.4 236.06 293.4 193.7"/><polygon class="cls-45" points="227.94 96.38 276.45 73.02 283.77 52.12 207.04 89.06 227.94 96.38"/><polygon class="cls-46" points="293.4 104.14 179.71 158.88 233.47 177.7 293.4 148.85 293.4 104.14"/><polygon class="cls-47" points="222.6 258.26 268.64 236.1 275.58 216.27 202.77 251.32 222.6 258.26"/><polygon class="cls-48" points="293.4 176.04 216.13 213.25 240.68 221.84 293.4 196.45 293.4 176.04"/><polygon class="cls-49" points="293.4 131.89 123.98 213.46 180.83 233.36 293.4 179.16 293.4 131.89"/><polygon class="cls-50" points="293.4 112.77 280.62 118.93 259.4 179.55 293.4 163.18 293.4 112.77"/></g></g></g></g></svg>