<svg id="Layer_1" data-name="Layer 1" xmlns="http://www.w3.org/2000/svg" viewBox="0 0 792 600.55"><defs><style>.cls-1{fill:#fdba12;}.cls-2{fill:none;stroke:#fdba12;stroke-miterlimit:10;stroke-width:6.48px;}.cls-3{fill:#282828;}.cls-4{fill:#fff;}</style></defs><title>Box_Mascot</title><polygon class="cls-1" points="340.16 22.44 95.72 90.76 95.72 177.3 470.73 231.96 639.26 148.45 479.84 277.5 132.16 224.36 132.16 487.02 484.39 578.12 655.96 439.96 655.96 136.31 678.73 128.71 678.73 61.91 340.16 22.44"/><polygon class="cls-2" points="337.38 6.02 78.5 78.38 78.5 170.03 475.67 227.92 654.15 139.48 485.31 276.16 117.09 219.88 117.09 498.06 490.14 594.53 671.84 448.21 671.84 126.62 695.96 118.58 695.96 47.83 337.38 6.02"/><ellipse class="cls-3" cx="243.55" cy="368.81" rx="30.64" ry="85.84"/><ellipse class="cls-3" cx="357.96" cy="396.05" rx="30.64" ry="85.84"/><ellipse class="cls-4" cx="243.55" cy="334.54" rx="18.36" ry="34.27"/><ellipse class="cls-4" cx="357.96" cy="361.78" rx="18.36" ry="34.27"/></svg>