<svg id="Layer_1" data-name="Layer 1" xmlns="http://www.w3.org/2000/svg" viewBox="0 0 720.13 97.55"><defs><style>.cls-1{fill:#fff;}.cls-2{fill:#fdba12;}.cls-3,.cls-4{fill:none;stroke-miterlimit:10;}.cls-3{stroke:#fff;stroke-width:1.59px;}.cls-4{stroke:#fdba12;stroke-width:1.06px;}.cls-5{fill:#282828;}</style></defs><title>Hack-A-Box_Logo</title><path class="cls-1" d="M8.52,2.37l2.19.32H23.54a2.17,2.17,0,0,0,1.21-.32c1.27.28,1.91.59,1.91.93V26.73a.57.57,0,0,1-.65.65H22.89c-.4.06-.6.27-.6.61v.32c0,.4.82.72,2.46.93A2.51,2.51,0,0,1,26,28.92a2.29,2.29,0,0,1,.65,1.25l-.33.65q0,.7,1.86,1.26c0,2.91.42,4.37,1.26,4.37,1.67,0,2.51.09,2.51.28l1.58-.28H58.83a9,9,0,0,0,.32-1.26,2.2,2.2,0,0,0-.32-.93l.32-1.58a2.25,2.25,0,0,1-.32-.93H57.25c-.4,0-.61-.21-.61-.65V29.24H47c-.43,0-.65-.2-.65-.6v-1q5.77-.29,8.46-.28H56c.4,0,.6-.21.6-.65V3.3c.07-.4.27-.61.61-.61h21.9V25.48l.32,1.58-.65.32H74.13l-1.86.28a3.3,3.3,0,0,0-1.54-.28H69.48c-.44.06-.65.27-.65.61v.32a.61.61,0,0,0,.65.61q5.76.31,9.67.32a.29.29,0,0,0,.32.33l-.32,1.53c0,.44.83.76,2.51,1V53.93l.28.6.65-.28h1.25q1.86.2,1.86.93v1.58q0,.42-.93.93a11.09,11.09,0,0,0-1.25-.32l-1.86.32v6.89c0,.49-.84.9-2.51,1.2V84.57l.32,2.18-.93.61H65.38c-1.76,0-4.57-.1-8.41-.28l-.33-.65V65.78c.07-.4.27-.6.61-.6h1.58L59.15,63a2.4,2.4,0,0,0-.32-1.25,28.11,28.11,0,0,1,.65-4.37l.6.32h1.86c.31,0,.62-.3.93-.93V55.18q0-.65-3.72-.93L58.5,53l-.6.32H51A14.77,14.77,0,0,1,48.23,53a2.41,2.41,0,0,1-1.26.32L46.32,53a2.4,2.4,0,0,1-1.25.32c-.19,0-.28-.1-.28-.32l-.65.32H35.4L33.54,53a3,3,0,0,1-1.58.32H29.17c-.44.07-.65.27-.65.61V64.58a.61.61,0,0,0,.65.6H31a2.41,2.41,0,0,0,1.25-.33c1.68.22,2.51.53,2.51.93v.33a.57.57,0,0,1-.65.65H26L24.47,67V86.75c0,.4-.22.61-.65.61H10.38c-1.76,0-4.57-.1-8.41-.28l-.33-.65V82.38A.29.29,0,0,1,2,82.06l-.33-.61V67.36c.07-.4.27-.6.61-.6h.32c.62,0,.93.09.93.28l1.58-.28h5.3L12,66.44v-.66q0-.6-.66-.6h-5c-.43,0-.65-.2-.65-.6V32.36L3.83,31.1c0-1.24-.2-1.86-.61-1.86H.06a.53.53,0,0,1-.6-.6v-.33c.06-.43.26-.65.6-.65H2.9q.47,0,.93-.93V9.58a2.36,2.36,0,0,1,.32-1.26,2.51,2.51,0,0,1-.32-1.26V3.3a.62.62,0,0,1,.65-.61H7.27C8.11,2.69,8.52,2.59,8.52,2.37ZM52.6,54.53h2.79c.43.1.65.31.65.65v1.58c0,.41-.22.61-.65.61-2.3,0-3.44-.31-3.44-.93h.32L52,55.79v-.61C52,54.75,52.23,54.53,52.6,54.53Z"/><path class="cls-1" d="M117.77,2.28h18.55q.56.09,5.07,13.2l.93.6h3.16q.84.66,7.53,20.18l2.24,6.28-.66.32h-7.25v.33c0,1.11.64,1.74,1.91,1.86l1.9-.28h.28q1.35.69,8.84,23.9l-.65.32a8.75,8.75,0,0,0-1.26-.32c-.19,0-.28.11-.28.32l-2.23-.32h-1.58a.62.62,0,0,0-.61.65q1.68,5,2.19,5h6.32a.62.62,0,0,1,.61.65v.28c0,.43-.21.65-.61.65h-6.92a2.27,2.27,0,0,1-1.26-.33,2.51,2.51,0,0,1-1.3.33h-6.6l-2.19-.33-.32.66a.61.61,0,0,0,.65.6H163.1q.93,0,4.09,10.41v.33H143.58q-.53,0-3.77-10.74H123.12a2.75,2.75,0,0,1-1.26-.28,2.7,2.7,0,0,1-1.25.28c-.44,0-.65-.2-.65-.6a.29.29,0,0,0,.32-.33c3.88-.22,6.71-.33,8.51-.33h10.09a.53.53,0,0,0,.6-.6l-.93-.65h-6.32c-.25,0-.87-1-1.86-2.84h-2.51v.33c0,.18.09,1,.28,2.51H125.3c-.21,0-.94-1-2.18-2.84H104.85c-1.21,0-1.94.84-2.19,2.51l.61.33h5.34c.44.06.65.28.65.65v.28l-4.09,12.32H81.23v-.33l4.42-12.6-9.44-.32c-.44,0-.65-.2-.65-.61,1-3.37,1.8-5.06,2.23-5.06H86.3c1.52,0,2.55-1.79,3.11-5.35.37,0,1.43-2.65,3.16-7.86l3.49-10.09v-.32H92.9c-.43-1.95-.51-2.64-.23-2q-.42-.47,8.41-.46.47-.09,5-12.88l4.42-12.93v-.32h-1.58v-.33A86.33,86.33,0,0,1,114,2.55Zm10.09,27.38q-3.39,13.2-4.74,13.2h-7.25c-.41,0-.72.64-.93,1.91h1.9q1.86.18,1.86.93-3.17,9.72-3.16,10.09l1.58.28,2.23-.28a2.67,2.67,0,0,0,.93.28l1.91-.28a.24.24,0,0,1,.28.28l1.58-.28h5.35c.21,0,.32.09.32.28,2.11-.19,3.16-.5,3.16-.93v-.33a43,43,0,0,1-2.83-8.18c0-1.09-1-1.7-2.84-1.86a2.51,2.51,0,0,0-.65-1.58c.09-.43.31-.65.65-.65h5.35q-1.59-5.76-4.09-12.88Z"/><path class="cls-1" d="M198.06,2.23a.29.29,0,0,1,.32.32l1.21-.32q14.79,0,25.24,7.07,11.07,0,11.07,2.46a45.22,45.22,0,0,1,10.74,12v1.85l-11.39,5.82q-3.17,1.86-4.6,1.86h-3.07q-6.93-9.67-12.6-11.07a49.29,49.29,0,0,0-5.86-2.14q-5.44,0-12.6,3.68v.32c2.26,0,3.39.2,3.39.61q-8.31,7.48-8.32,11.66-1,1.17-1.81,6.14H183.6a.61.61,0,0,0-.61.65c0,.28.31.58.93.89h5.21q.47,0,1.53,7.71a23.53,23.53,0,0,0,6.47,11.07l-.61.28h-3.39v.65q4.08,4,13.53,6.14,3.48,0,10.18-2.79,6.18,0,9.53-4h.28v-.61h-3.07V62.2a40.6,40.6,0,0,1,4-5.53h3.67q.65,0,10.79,5.53,6.47,0,8.92,2.75v.32a6.8,6.8,0,0,0-1.25,1.54l-2.14-.33c-1.33,0-3.18,2-5.53,6.14a12.79,12.79,0,0,1-4.93.65h-.61c-.31,0-.62.29-.93.88h4v.93Q229.76,84.2,223,85.26a24.46,24.46,0,0,1-11.06,2.42h-6.46q-16.78,0-29.85-12-1.31-1.58-4.6-1.58a9.5,9.5,0,0,1-1.21.33q-1.26-.47-1.26-.93a.62.62,0,0,1,.65-.61,2,2,0,0,1,.89.33l1.86-.33h.6v-.32Q167,65,167,63.41v-.32h3.07l1.53-.28a47,47,0,0,1-4-16.6h-3.95v-.93H167a.53.53,0,0,0,.6-.6c0-.44-.2-.65-.6-.65h-5.53a.54.54,0,0,1-.61-.61v-.93a4,4,0,0,0,1.86-.28l.61.28c3.06,0,4.6-.4,4.6-1.21A38,38,0,0,1,172.86,25v-.27a.54.54,0,0,0-.61-.61h-3.07l-.65-.32q5.53-9.77,12.6-13.53a.53.53,0,0,0-.6-.61h-6.14V9.3Q178,6.09,187.32,3.44a51.46,51.46,0,0,1,8.92-.89h.61A2.21,2.21,0,0,0,198.06,2.23Zm-20,43.05v.93H179c.41,0,.61-.22.61-.65l-.61-.28Zm32.59,17.2h2.79c.41.07.61.27.61.61-2.57,2.26-4.42,3.39-5.53,3.39h-2.47v-.6Q207.22,65.88,210.65,62.48Z"/><path class="cls-1" d="M279.36,2.23c2.29.22,3.44.53,3.44.93V21.38h3.49a.62.62,0,0,1,.6.66V28l.33,1.58c2.73,0,4.09-1.06,4.09-3.16a2.25,2.25,0,0,1-.33-.93l.33-.61a2.41,2.41,0,0,1-.33-1.25c1.27-.59,1.91-1.34,1.91-2.24h-2.84c-.43,0-.65-.2-.65-.6q.56,0,17.3-18.23h27.66v.33q-4,4.51-17.29,18.23v.27h3.16V22q0,.41-7.53,7.53h-3.82l-1.53.32v-.32l-.65.32h-2.51v.61h6.6c.43.06.65.28.65.65q-.29,0-8.83,9.11v.33q3.72,4.59,13.85,16a2.32,2.32,0,0,1-1.25.65c0,1,1.14,1.61,3.44,1.86l.93,1.25V61h-2.84v.93c1.05,0,1.58.1,1.58.32l1.58-.32h3.44c1.61,0,2.56.41,2.84,1.25l-.33.65-1.53-.32a15.85,15.85,0,0,0-2.84.32,2.25,2.25,0,0,0-.93-.32l-.65.32a2.25,2.25,0,0,0-.93-.32l-.32.6q4.28,4.32,12.87,15.11c.44,0,2,1.67,4.7,5v.33l-.28.6a2.42,2.42,0,0,1,.28,1h1.58c.31,0,.64.31,1,.93,0,.4-.22.6-.65.6H319.3q-3.17,0-9.44-.28A3,3,0,0,0,307,85.82v-.65a3.44,3.44,0,0,0,.61-.93v-.32q-.7,0-9.39-11.3l-6.93-8.51q.09-.6.6-.6l1.31.32a2.25,2.25,0,0,1,.93-.32v.32l.6-.32h3.49c.4,0,.6-.22.6-.65a2.13,2.13,0,0,0-1.25-.61c-1.34,0-4.06-.11-8.19-.32l-.6-.93c.22,0,.32-.11.32-.33a2.25,2.25,0,0,0,.93.33l.61-.33a2.41,2.41,0,0,0,1.25.33h.65v-.33c0-.4-.52-1-1.58-1.86l-.6.28c-1.05-.25-1.58-.56-1.58-.93v-.33L291.31,56a2.13,2.13,0,0,0,.32-1c-.4-.93-.82-1.44-1.25-1.54h-.33q-.42,0-3.76,3.77-1.26,0-1.26.6v.33l1.86,1.25a2.25,2.25,0,0,1,.33.93,3.51,3.51,0,0,1-.93.66h-2.84c-.43.06-.65.26-.65.6V87.08a.53.53,0,0,1-.6.6H269.64c-2.1,0-5.25-.09-9.43-.28l-.33-.65V61.6a.61.61,0,0,1,.65-.6H264l.33-1.59v-.32c-1.49,0-2.23-.31-2.23-.93v-.33c0-.62.74-.93,2.23-.93V55.32c0-.21.09-.32.28-.32l-.28-.61V31.47c0-.43-.33-.65-1-.65-4.18-.21-6.48-.32-6.88-.32l-.33-.61.66-.32q5.67-.33,7.53-.33V23L264,21.38h-3.44c-.43,0-.65-.2-.65-.6V3.16a.62.62,0,0,1,.65-.61h1.26Q278.8,2.55,279.36,2.23ZM259.55,56.9h.66a.62.62,0,0,1,.6.66v.6q0,.47-.93.93-.47,0-.93-.93v-.6Q259,56.9,259.55,56.9Zm19.49-27v.61h1.58v-.28l-.33-.65A2.34,2.34,0,0,1,279,29.89Zm7.85,1.58a.61.61,0,0,0,.65.61l.33-.61v-.65h-.33C287.11,30.88,286.89,31.1,286.89,31.47Zm12.28,53.42h2.51c.34,0,.76.42,1.25,1.26h-3.44c-.31,0-.63-.33-1-1Z"/><polygon class="cls-2" points="575.09 3.62 535.14 14.79 535.14 28.94 596.43 37.87 623.98 24.22 597.92 45.32 541.09 36.63 541.09 79.57 598.67 94.46 626.71 71.87 626.71 22.24 630.43 21 630.43 10.08 575.09 3.62"/><path class="cls-1" d="M439.91,55.18c.4.07.6.27.6.61v.32a.53.53,0,0,1-.6.61c-.43,0-.65-.2-.65-.61v-.32A.62.62,0,0,1,439.91,55.18Zm23.9-51.6h28q17.39,0,24.55,12.27a33.85,33.85,0,0,1-3.81.61,37.36,37.36,0,0,1,2.51,8.18h3.16c.43,0,.65.31.65.93h3.77c.4.09.6.31.6.65v1.25q0,.66-.6.66a.29.29,0,0,1-.33-.33.29.29,0,0,0-.33.33l-1.53-.33h-1.3q0,11.67-9.72,17.62V46Q522,51.55,522,65.55v2.51h.33c.28,0,1.33-.11,3.16-.32l.33.65c-.16,2.73-.58,4.09-1.26,4.09h-1.3a2.44,2.44,0,0,1-1.26-.33q-1.07,0-2.83,5.68l-2.51,2.51L514.48,80h-.93q-8.59,8.83-17.62,8.83H449.67a.57.57,0,0,1-.65-.65V80.66c.06-.43.28-.65.65-.65h3.12c.43,0,.65-.2.65-.6v-.65q0-.93-.33-.93l.33-1.58V57.69a.58.58,0,0,0-.65-.65h-1.86c-1.8,0-4.64-.1-8.51-.32l-.33-.61v-.32l.33-.61q5.81-.32,8.51-.32h2.18l.33-1.58V30l-.33-1.86a3.17,3.17,0,0,0,.33-1.59v-1c0-.25-.75-.76-2.23-1.54V16.78c0-.28.63-.59,1.9-.93a2.47,2.47,0,0,0,.33-1c0-.66-.11-2.64-.33-6,.22-3.16.44-4.85.65-5.06C458.26,3.67,461.6,3.58,463.81,3.58ZM446.19,16.46h.65v7.85h-.65Zm2.23,0h.6v7.85h-.6Zm16.64,38.72c0,.41-.09.61-.28.61a2.37,2.37,0,0,1,.28.93h10.42v-.93l-2.24-.61Zm12.6-34.63H472V24a.61.61,0,0,0,.65.61h2.84a3.61,3.61,0,0,1,.93.65l-.33,2.18V37.84c.06.44.28.65.65.65h12.55q6.93-2.79,6.93-8.18V27.8H500v-.33a1.94,1.94,0,0,0-1.3-1.9l-.6.32c-.22,0-.33-.1-.33-.32l-.6.32h-1.58a3.12,3.12,0,0,0-2.23-1.25h-2.52q-3.76-4.09-5.95-4.09h-6.32c-.19,0-.28-.11-.28-.33ZM478.31,57h-1.9l-.33,2.24q0,.93.33.93l-.33,1.58v1.58a50.26,50.26,0,0,0,.33,5.62,10.86,10.86,0,0,0-.33,2.84l.65.32h19.2c1.71,0,3.58-1.25,5.63-3.76-2.51-.22-3.77-.53-3.77-.93q1.06,0,1.58-6c-1.67-2.94-2.62-4.42-2.83-4.42q-2.32,0-15.44-.32l-2.18.32v-.32Zm-1.9-2.83v1h3.44c3.13,0,7.32-.1,12.6-.32q-.19-.93-2.52-.93h-5C483.12,53.93,480.28,54,476.41,54.21Zm22.64,1v1.26l.32.6,2.19-.32h8.18c.43,0,.65-.2.65-.61v-.32c0-.4-.22-.61-.65-.61Z"/><path class="cls-1" d="M641.93,3.62h24.22q1,.33,9.11,13.53v.61h-1.9v.65h3.76c1.49,1.3,2.24,2.34,2.24,3.11a2.5,2.5,0,0,1-1,.33v.32c1.67,2.24,2.51,3.6,2.51,4.1h1.58c1.27.83,1.91,1.67,1.91,2.51h.6c.62-.13.93-.87.93-2.24-.9,0-1.83-1.14-2.79-3.44l2.79-3.16Q695.59,4.46,696.6,3.62h24.23c.4.07.6.27.6.61l-11,16.36a17.47,17.47,0,0,0-4.42,5v.66q.93,0,.93.6L705.11,30v.33h2.19c.43.06.65.26.65.6l-.65.93c1.49,0,2.23.22,2.23.65l-.65.33h-3.16l-.61-.33c-1.39,2.08-2.45,3.12-3.16,3.12q-1.58,1.16-6.28,9.16Q711.3,68.63,718,78.1v.33c0,.31-.53.62-1.58.93q5.07,7.71,5.35,8.79a10.67,10.67,0,0,1-2.84.65v-.33l-.6.33h-12q-10.7,0-10.7-1.58,0-.56-4.69-7.86a3.54,3.54,0,0,1,1.86-.33v-.6l-5.63-8.79a7.68,7.68,0,0,1-1.58-3.48l1.58-2.51a6.72,6.72,0,0,0-1.9-2.84l-4.09,6q-3.72,7.11-6.28,9.11a2.16,2.16,0,0,0-.93-.33.29.29,0,0,0-.33.33,2.25,2.25,0,0,1-.93-.33c-2.17.22-3.85.33-5.06.33h-.61v.6h7.21c.43.07.65.28.65.65A2.58,2.58,0,0,1,672.43,79c-1.4,0-2.56,1.28-3.49,3.82-2.63,3.93-4.09,5.92-4.37,6H650.44q-2.57,0-6-.33l-.6.33c-1.68-.22-2.51-.44-2.51-.65l-.66.32h-.32a.54.54,0,0,1-.61-.6Q645.56,79,646.35,79c1.64,0,2.68-.62,3.11-1.86a2.25,2.25,0,0,0-.93-.32q-.6,0-6.93-.33v-.27c.07-.44.28-.66.66-.66a4.31,4.31,0,0,1,2.18.33,15.65,15.65,0,0,1,2.84-.33h3.44Q660.67,60,671.17,45.1a74,74,0,0,0-6-9.12.61.61,0,0,1,.65-.6l-1.58-2.51.65-.33h.6a.29.29,0,0,1,.33.33l.6-.33h.65a.29.29,0,0,1,.33.33,2.26,2.26,0,0,1,1.25-.33v-.65h-2.83a3.33,3.33,0,0,0-2.51-1.53h-2.24q-2.51-4.09-5-4.09a26.92,26.92,0,0,0-2.83-4.1,2.5,2.5,0,0,1,1.25-.32v-.61a4.41,4.41,0,0,0-4.37-2.83l-.65.28a17.09,17.09,0,0,0-2.51-.28v-.65h3.16v-.33q0-.6-8.78-13.2C641.39,3.83,641.59,3.62,641.93,3.62Zm14.46,27h1.25c1.27.15,1.91.48,1.91,1v.28h-2.84q-.47,0-.93-.93Zm15.39,12.87v.33h.65v-.33Zm.32-25.75v.65a.57.57,0,0,0,.65-.65Z"/><path class="cls-3" d="M387.49,2.62H406q.56.1,5.07,13.21l.93.6h3.16q.84.66,7.53,20.18L425,42.89l-.65.32h-7.25v.33c0,1.11.64,1.73,1.91,1.86l1.9-.28h.28q1.35.69,8.84,23.9l-.65.32a7.46,7.46,0,0,0-1.26-.32c-.19,0-.28.1-.28.32L425.57,69H424a.61.61,0,0,0-.61.65c1.12,3.34,1.85,5,2.19,5h6.32a.62.62,0,0,1,.61.65v.28c0,.43-.21.65-.61.65H425a2.26,2.26,0,0,1-1.25-.33,2.51,2.51,0,0,1-1.3.33h-6.6l-2.19-.33-.32.65c.06.41.27.61.65.61h18.87q.93,0,4.09,10.41v.33H413.3q-.53,0-3.77-10.74H392.84a2.75,2.75,0,0,1-1.26-.28,2.7,2.7,0,0,1-1.25.28c-.44,0-.65-.2-.65-.61a.28.28,0,0,0,.32-.32c3.88-.22,6.71-.33,8.51-.33H408.6a.53.53,0,0,0,.6-.6l-.93-.65H402c-.25,0-.87-1-1.86-2.84h-2.51v.33c0,.18.09,1,.28,2.51H395c-.21,0-.94-1-2.18-2.84H374.57c-1.21,0-1.94.84-2.19,2.51l.61.33h5.34c.44.06.65.28.65.65v.28l-4.09,12.32H351v-.33L355.37,75l-9.44-.32c-.44,0-.65-.2-.65-.61,1.05-3.38,1.79-5.06,2.23-5.06H356c1.52,0,2.55-1.79,3.11-5.35.37,0,1.43-2.65,3.16-7.86l3.49-10.09V45.4h-3.16c-.44-2-.51-2.64-.23-2q-.42-.47,8.41-.46.46-.11,5-12.88l4.42-12.93v-.32h-1.58v-.33A86.33,86.33,0,0,1,383.73,2.9ZM397.58,30q-3.39,13.2-4.74,13.2h-7.25c-.41,0-.72.64-.93,1.91h1.9q1.86.18,1.86.93-3.17,9.72-3.16,10.09l1.58.28,2.23-.28a2.67,2.67,0,0,0,.93.28l1.91-.28a.25.25,0,0,1,.28.28l1.58-.28h5.35c.21,0,.32.09.32.28,2.11-.19,3.16-.5,3.16-.93v-.33A43,43,0,0,1,399.77,47c0-1.09-.95-1.71-2.84-1.86a2.49,2.49,0,0,0-.65-1.58c.09-.44.31-.65.65-.65h5.35q-1.59-5.78-4.09-12.88Z"/><polygon class="cls-4" points="574.64 0.94 532.32 12.77 532.32 27.75 597.24 37.21 626.42 22.76 598.82 45.1 538.63 35.9 538.63 81.37 599.61 97.14 629.31 73.22 629.31 20.65 633.25 19.34 633.25 7.77 574.64 0.94"/><ellipse class="cls-5" cx="559.3" cy="60.24" rx="5.01" ry="14.03"/><ellipse class="cls-5" cx="578" cy="64.7" rx="5.01" ry="14.03"/><ellipse class="cls-1" cx="559.3" cy="54.64" rx="3" ry="5.6"/><ellipse class="cls-1" cx="578" cy="59.09" rx="3" ry="5.6"/></svg>